{"glyphs":{":":{"x_min":0,"x_max":237,"ha":237,"o":"m 64 453 l 64 471 q 64 496 76 509 q 89 522 113 522 l 124 522 q 148 522 160 509 q 173 496 173 471 l 173 453 q 173 428 160 415 q 148 402 124 402 l 113 402 q 89 402 76 415 q 64 428 64 453 z m 64 51 l 64 70 q 64 94 76 108 q 89 121 113 121 l 124 121 q 148 121 160 108 q 173 94 173 70 l 173 51 q 173 27 160 14 q 148 0 124 0 l 113 0 q 89 0 76 14 q 64 27 64 51 z"},"$":{"x_min":0,"x_max":582,"ha":582,"o":"m 349 -6 l 349 -87 q 349 -108 336 -122 q 322 -135 301 -135 q 281 -135 268 -122 q 254 -108 254 -87 l 254 -8 q 196 -3 149 17 q 102 37 59 77 q 38 95 38 118 q 38 136 52 150 q 66 165 85 165 q 102 165 114 154 q 146 124 180 107 q 214 90 254 84 l 254 315 q 158 337 107 384 q 56 432 56 514 q 56 593 110 644 q 165 696 254 707 l 254 759 q 254 780 268 794 q 282 807 303 807 q 323 807 336 794 q 349 780 349 759 l 349 706 q 396 699 436 681 q 476 663 503 637 q 526 617 526 594 q 526 576 512 562 q 499 548 480 548 q 466 548 457 556 q 439 574 410 589 q 381 604 349 611 l 349 389 q 445 364 492 320 q 539 275 539 188 q 539 113 486 61 q 432 9 349 -6 z m 254 413 l 254 615 q 206 607 178 581 q 151 555 151 518 q 151 478 178 454 q 204 429 254 413 z m 443 184 q 442 222 418 248 q 395 273 349 290 l 349 89 q 391 100 417 125 q 443 150 443 184 z"},"?":{"x_min":0,"x_max":510,"ha":510,"o":"m 222 373 q 289 375 332 410 q 374 446 374 512 q 374 569 335 606 q 296 644 239 644 q 207 644 178 630 q 148 617 126 594 q 106 576 86 576 q 72 576 60 585 q 38 601 38 622 q 38 640 53 655 q 87 694 136 716 q 184 738 239 738 q 303 738 356 709 q 408 680 439 628 q 470 577 470 512 q 470 452 444 406 q 417 359 371 330 q 325 302 267 296 q 266 296 266 296 q 267 295 269 296 l 269 230 q 269 210 256 196 q 242 182 222 182 q 201 182 188 196 q 174 210 175 230 l 175 324 q 175 345 188 359 q 202 373 222 373 z m 169 51 l 169 70 q 169 94 182 108 q 195 121 219 121 l 229 121 q 253 121 266 108 q 279 94 279 70 l 279 51 q 279 27 266 14 q 253 0 229 0 l 219 0 q 195 0 182 14 q 169 27 169 51 z"},"<":{"x_min":0,"x_max":524,"ha":524,"o":"m 467 48 q 467 30 454 15 q 441 0 427 0 q 415 0 387 16 l 51 211 q 28 224 28 252 q 28 280 52 294 l 386 484 q 409 498 422 498 q 439 498 453 483 q 467 468 467 451 q 467 430 447 419 l 156 252 l 445 83 q 467 71 467 48 z"},"'":{"x_min":0,"x_max":204,"ha":204,"o":"m 101 700 l 132 700 q 148 700 157 692 q 166 685 166 672 q 166 664 163 655 l 97 443 q 88 415 61 415 q 48 415 42 424 q 36 433 38 450 l 58 661 q 63 700 101 700 z"},"=":{"x_min":0,"x_max":562,"ha":562,"o":"m 50 375 q 50 394 64 406 q 77 418 97 418 l 465 418 q 485 418 498 406 q 512 393 512 374 q 512 356 498 343 q 485 330 465 330 l 97 330 q 77 330 64 343 q 50 356 50 375 z m 50 186 q 50 205 64 217 q 77 229 97 229 l 465 229 q 485 229 498 216 q 512 204 512 185 q 512 167 498 154 q 485 141 465 141 l 97 141 q 77 141 64 154 q 50 167 50 186 z"},"a":{"x_min":0,"x_max":614,"ha":614,"o":"m 544 482 l 544 48 q 544 28 530 14 q 517 0 496 0 q 475 0 462 14 q 449 27 449 48 l 449 74 q 423 39 378 14 q 333 -10 281 -10 q 213 -10 158 25 q 102 60 70 122 q 39 185 39 263 q 39 341 70 404 q 102 466 157 501 q 212 536 278 536 q 331 536 376 514 q 422 492 449 458 l 449 482 q 449 503 462 517 q 475 531 496 531 q 517 531 530 518 q 544 504 544 482 z m 453 263 q 453 315 432 357 q 412 399 376 424 q 339 448 292 448 q 245 448 208 424 q 172 400 152 358 q 131 316 131 263 q 131 210 152 168 q 172 126 208 102 q 245 78 292 78 q 339 78 376 102 q 412 126 432 168 q 453 210 453 263 z"},"L":{"x_min":0,"x_max":550,"ha":550,"o":"m 517 46 q 517 26 504 13 q 490 0 469 0 l 131 0 q 110 0 96 14 q 83 28 83 48 l 83 652 q 83 672 97 686 q 111 700 133 700 q 153 700 168 686 q 182 672 182 652 l 182 93 l 469 93 q 490 93 504 80 q 517 67 517 46 z"},"3":{"x_min":0,"x_max":521,"ha":521,"o":"m 475 227 q 475 156 442 102 q 409 48 351 19 q 293 -10 218 -10 q 178 -10 140 1 q 103 12 76 33 q 49 48 49 74 q 49 93 62 109 q 76 125 95 125 q 113 125 131 112 q 172 74 234 74 q 273 74 306 92 q 340 110 360 144 q 380 177 380 221 q 380 286 340 321 q 300 356 244 356 q 228 356 198 349 q 176 343 165 343 q 147 343 136 356 q 125 368 125 387 q 125 398 129 406 q 133 414 142 425 l 312 612 l 81 612 q 62 612 49 625 q 36 638 36 657 q 36 676 49 688 q 62 700 81 700 l 400 700 q 423 700 436 686 q 449 672 449 652 q 449 634 430 615 l 275 443 q 332 443 378 414 q 423 386 449 337 q 475 288 475 227 z"},";":{"x_min":0,"x_max":254,"ha":254,"o":"m 86 453 l 86 471 q 86 496 99 509 q 112 522 137 522 l 147 522 q 171 522 184 509 q 198 496 198 471 l 198 453 q 198 428 184 415 q 171 402 147 402 l 137 402 q 112 402 99 415 q 86 428 86 453 z m 106 -130 q 89 -130 78 -122 q 67 -113 67 -97 q 67 -83 74 -78 q 81 -72 90 -69 q 100 -66 105 -64 q 119 -57 126 -46 q 134 -34 134 -20 q 134 -9 125 -1 q 116 7 102 7 q 86 7 75 -1 q 65 4 60 12 q 55 19 55 32 q 56 56 81 74 q 106 93 134 93 q 171 93 192 70 q 213 47 213 6 q 213 -19 197 -52 q 181 -84 156 -107 q 132 -130 106 -130 z"},"J":{"x_min":0,"x_max":560,"ha":560,"o":"m 60 95 q 51 109 51 122 q 51 141 66 154 q 81 168 97 168 q 119 168 142 143 q 181 85 247 85 q 302 85 340 122 q 378 159 378 213 l 378 652 q 378 672 393 686 q 408 700 428 700 q 450 700 464 686 q 477 673 477 652 l 477 213 q 477 152 447 101 q 417 50 364 20 q 312 -10 247 -10 q 188 -10 138 18 q 89 46 60 95 z"},"V":{"x_min":0,"x_max":672,"ha":672,"o":"m 641 656 q 641 646 636 634 l 381 31 q 374 16 361 8 q 348 0 334 0 q 321 1 310 8 q 298 16 291 30 l 36 634 q 32 642 32 655 q 32 676 47 689 q 62 702 80 702 q 110 702 124 670 l 342 155 l 548 671 q 555 685 566 693 q 578 701 592 701 q 612 701 626 688 q 641 675 641 656 z"},"\"":{"x_min":0,"x_max":410,"ha":410,"o":"m 101 700 l 131 700 q 148 700 157 692 q 166 685 166 671 q 166 664 163 655 l 97 443 q 87 415 61 415 q 48 415 42 424 q 36 433 38 450 l 58 661 q 63 700 101 700 z m 308 700 l 339 700 q 355 700 364 692 q 373 685 373 671 q 373 664 370 655 l 303 443 q 294 415 267 415 q 255 415 250 424 q 244 434 245 451 l 266 661 q 269 700 308 700 z"},"7":{"x_min":0,"x_max":548,"ha":548,"o":"m 511 654 q 511 644 506 632 l 238 26 q 232 12 220 4 q 208 -4 194 -4 q 175 -4 160 9 q 145 22 145 41 q 145 51 150 63 l 394 612 l 105 612 q 86 612 73 625 q 60 638 60 657 q 60 676 72 688 q 85 700 105 700 l 461 700 q 482 700 496 687 q 511 674 511 654 z"},"S":{"x_min":0,"x_max":582,"ha":582,"o":"m 59 77 q 38 95 38 118 q 38 136 52 150 q 66 165 85 165 q 102 165 114 154 q 154 117 196 100 q 239 82 293 82 q 356 82 400 111 q 443 140 443 184 q 442 236 400 264 q 357 293 270 312 q 167 333 112 381 q 56 429 56 514 q 56 573 87 618 q 118 662 173 686 q 228 710 297 710 q 359 710 414 690 q 469 670 503 637 q 526 617 526 594 q 526 576 512 562 q 499 548 480 548 q 466 548 457 556 q 431 582 385 600 q 339 618 297 618 q 230 618 190 590 q 151 563 151 518 q 151 469 190 443 q 230 417 308 399 q 386 382 436 359 q 485 336 512 295 q 539 254 539 188 q 539 130 506 85 q 474 40 418 15 q 362 -10 295 -10 q 222 -10 166 10 q 110 31 59 77 z"},"}":{"x_min":0,"x_max":412,"ha":412,"o":"m 397 251 q 397 235 386 224 q 375 214 359 214 l 353 214 q 305 213 280 180 q 256 147 256 89 l 257 -6 q 257 -56 240 -90 q 224 -125 184 -152 q 144 -178 72 -199 q 64 -201 58 -201 q 44 -201 35 -189 q 26 -177 26 -164 q 26 -153 34 -144 q 41 -136 54 -131 q 103 -115 127 -98 q 151 -80 160 -56 q 168 -32 168 8 l 167 103 q 167 161 192 199 q 218 237 265 252 q 218 268 192 305 q 167 342 167 400 l 168 495 q 168 535 160 558 q 151 582 127 600 q 103 618 54 634 q 26 645 26 670 q 27 684 36 694 q 46 703 59 703 q 68 703 72 702 q 145 687 186 660 q 226 634 242 598 q 257 561 257 509 l 256 414 q 256 356 282 323 q 307 290 355 289 l 359 289 q 375 289 386 278 q 397 267 397 251 z"},"Z":{"x_min":0,"x_max":646,"ha":646,"o":"m 597 46 q 597 26 583 13 q 569 0 549 0 l 93 0 q 72 0 58 14 q 43 29 43 47 q 43 63 54 77 l 462 609 l 127 609 q 106 609 92 622 q 79 635 79 655 q 79 675 92 688 q 106 700 127 700 l 555 700 q 575 700 591 686 q 607 673 607 653 q 607 639 596 623 l 188 91 l 549 91 q 570 91 584 78 q 597 66 597 46 z"},"x":{"x_min":0,"x_max":486,"ha":486,"o":"m 463 46 q 463 26 448 12 q 433 -3 415 -3 q 392 -3 376 18 l 242 187 l 110 18 q 103 8 93 3 q 83 -2 72 -2 q 55 -2 40 10 q 26 23 26 40 q 26 58 37 70 l 187 257 l 33 451 q 23 464 23 479 q 23 499 38 513 q 52 527 71 527 q 95 527 110 507 l 247 334 l 376 506 q 391 527 414 527 q 433 527 446 514 q 459 502 459 485 q 459 466 448 454 l 300 267 l 452 74 q 463 62 463 46 z"},")":{"x_min":0,"x_max":364,"ha":364,"o":"m 20 -144 q 20 -124 37 -111 q 130 -47 180 51 q 229 149 229 259 q 229 371 180 470 q 131 569 37 629 q 29 634 24 643 q 20 652 20 661 q 20 677 32 690 q 43 703 60 703 q 71 703 82 696 q 199 626 262 510 q 325 394 325 259 q 325 125 262 10 q 198 -105 81 -179 q 71 -186 60 -186 q 43 -186 32 -172 q 20 -159 20 -144 z"},"&":{"x_min":0,"x_max":697,"ha":697,"o":"m 672 42 q 672 28 661 14 q 650 0 632 0 q 615 0 604 8 l 512 84 q 418 -10 276 -10 q 207 -10 150 22 q 94 53 62 104 q 30 156 30 213 q 30 283 67 338 q 104 392 178 423 q 158 452 148 478 q 138 504 138 532 q 138 581 163 622 q 188 662 235 686 q 282 710 344 710 q 413 710 466 686 q 518 661 537 623 q 544 609 544 592 q 544 576 532 565 q 521 554 502 554 q 480 554 470 570 q 449 600 418 614 q 388 629 344 629 q 293 629 266 603 q 238 577 238 536 q 238 500 264 463 q 290 426 338 374 l 356 354 q 414 290 498 215 q 524 266 534 327 q 539 356 574 356 q 594 356 606 340 q 619 323 616 301 q 603 219 566 155 q 607 119 651 83 q 672 64 672 42 z m 446 141 q 339 235 265 319 q 251 334 232 357 q 175 340 151 307 q 127 274 127 227 q 127 188 145 155 q 163 122 201 101 q 239 80 295 80 q 383 80 446 141 z"},"_":{"x_min":0,"x_max":688,"ha":688,"o":"m 53 -121 q 53 -105 64 -94 q 76 -83 93 -83 l 595 -83 q 613 -83 624 -94 q 635 -105 635 -122 q 635 -139 624 -150 q 613 -160 595 -160 l 93 -160 q 76 -160 64 -149 q 53 -138 53 -121 z"},"v":{"x_min":0,"x_max":548,"ha":548,"o":"m 516 487 q 516 478 509 462 l 319 30 q 313 17 302 9 q 291 1 278 0 q 262 -2 248 6 q 235 14 228 30 l 38 462 q 33 477 33 487 q 33 503 46 516 q 59 529 80 529 q 95 529 107 522 q 119 514 126 499 l 277 148 l 428 499 q 442 529 471 529 q 490 529 503 516 q 516 504 516 487 z"},"O":{"x_min":0,"x_max":762,"ha":762,"o":"m 381 -10 q 284 -10 207 38 q 130 85 86 167 q 43 249 43 350 q 43 451 86 533 q 130 615 207 662 q 284 710 381 710 q 478 710 555 662 q 632 615 676 533 q 719 451 719 350 q 719 249 676 167 q 632 85 555 38 q 478 -10 381 -10 z m 381 615 q 313 615 260 581 q 206 547 176 486 q 146 426 146 350 q 146 275 176 214 q 206 154 260 120 q 313 85 381 85 q 449 85 502 120 q 556 154 586 214 q 616 275 616 350 q 616 425 586 486 q 556 546 502 580 q 449 615 381 615 z"},"(":{"x_min":0,"x_max":364,"ha":364,"o":"m 282 -180 q 165 -110 102 6 q 39 123 39 258 q 39 393 102 508 q 165 622 283 696 q 293 703 304 703 q 322 703 333 690 q 344 676 344 661 q 344 642 327 628 q 234 564 184 466 q 135 368 135 258 q 135 145 184 46 q 233 -53 327 -112 q 344 -124 344 -145 q 344 -160 332 -173 q 321 -186 304 -186 q 294 -186 282 -180 z"},"C":{"x_min":0,"x_max":638,"ha":638,"o":"m 606 619 q 606 601 594 586 q 582 570 561 570 q 547 570 534 577 q 472 612 400 612 q 325 612 268 579 q 210 546 178 486 q 146 427 146 350 q 146 267 179 207 q 212 147 270 116 q 328 84 400 84 q 474 84 534 120 q 546 126 560 126 q 582 126 595 109 q 607 94 607 77 q 607 65 600 54 q 594 44 583 38 q 544 16 496 3 q 447 -10 400 -10 q 303 -10 222 33 q 140 76 92 158 q 43 240 43 350 q 43 451 90 532 q 136 614 218 660 q 299 707 400 707 q 497 707 582 659 q 606 646 606 619 z"},"W":{"x_min":0,"x_max":953,"ha":953,"o":"m 931 652 q 931 644 928 635 l 721 30 q 717 16 704 8 q 692 1 678 0 q 664 0 651 8 q 638 16 632 31 l 476 396 l 321 31 q 315 16 302 8 q 289 0 274 0 q 260 1 248 9 q 236 17 232 30 l 25 635 q 22 644 22 652 q 22 674 38 688 q 55 703 74 703 q 90 703 103 694 q 116 686 120 672 l 289 171 l 434 527 q 440 541 452 549 q 464 557 479 557 q 494 557 506 549 q 518 541 524 527 l 665 171 l 833 672 q 837 687 850 695 q 863 703 880 703 q 899 703 915 689 q 931 675 931 652 z"},"A":{"x_min":0,"x_max":642,"ha":642,"o":"m 624 43 q 624 23 610 10 q 597 -3 579 -3 q 565 -3 554 6 q 542 14 535 29 l 473 176 l 164 176 l 103 28 q 98 13 86 5 q 75 -3 61 -3 q 40 -3 29 8 q 18 19 18 38 q 18 42 20 54 l 275 672 q 282 688 294 696 q 307 705 323 703 q 338 703 350 695 q 362 687 367 672 l 621 62 q 624 53 624 43 z m 202 267 l 435 267 l 318 547 z"},"f":{"x_min":0,"x_max":390,"ha":390,"o":"m 231 585 l 231 515 l 330 515 q 350 515 362 502 q 375 490 375 471 q 375 452 362 440 q 350 428 330 428 l 231 428 l 231 48 q 231 28 218 14 q 204 0 183 0 q 163 0 150 14 q 136 28 136 48 l 136 428 l 74 428 q 55 428 42 440 q 29 452 29 471 q 29 490 42 502 q 55 515 74 515 l 136 515 l 136 585 q 136 655 181 696 q 226 738 308 738 q 342 738 368 726 q 394 713 394 688 q 394 669 382 656 q 371 644 355 644 q 351 644 333 648 q 311 654 295 654 q 262 654 246 634 q 231 614 231 585 z"},"Q":{"x_min":0,"x_max":763,"ha":763,"o":"m 785 -85 q 785 -111 753 -135 q 721 -159 675 -174 q 629 -189 591 -189 q 530 -189 492 -177 q 454 -165 413 -142 q 382 -125 362 -118 q 342 -110 315 -110 q 303 -110 292 -114 q 282 -117 272 -122 q 248 -134 227 -134 q 208 -134 194 -120 q 181 -105 181 -87 q 181 -56 208 -46 l 320 -5 q 239 9 176 59 q 113 109 78 185 q 43 261 43 350 q 43 451 86 533 q 130 615 207 662 q 284 710 381 710 q 478 710 555 662 q 632 615 676 533 q 719 451 719 350 q 719 262 686 188 q 652 114 592 64 q 532 14 454 -2 l 378 -30 q 403 -33 424 -42 q 444 -50 473 -65 q 509 -83 536 -92 q 563 -102 596 -102 q 625 -102 646 -94 q 667 -86 686 -72 q 694 -66 704 -58 q 715 -49 724 -44 q 732 -40 741 -40 q 758 -40 772 -54 q 785 -67 785 -85 z m 381 85 q 449 85 502 120 q 556 154 586 214 q 616 275 616 350 q 616 425 586 486 q 556 546 502 580 q 449 615 381 615 q 313 615 260 581 q 206 547 176 486 q 146 426 146 350 q 146 275 176 214 q 206 154 260 120 q 313 85 381 85 z"},"w":{"x_min":0,"x_max":761,"ha":761,"o":"m 729 481 q 729 474 725 462 l 572 30 q 566 14 552 6 q 538 -2 522 0 q 495 2 481 30 l 377 302 l 281 30 q 275 16 264 8 q 253 1 240 0 q 225 -2 210 6 q 196 15 191 30 l 36 462 q 33 471 33 481 q 33 501 46 515 q 59 529 80 529 q 114 529 124 499 l 243 162 l 338 411 q 350 441 382 441 q 412 441 423 411 l 520 166 l 637 499 q 648 529 683 529 q 702 529 716 516 q 729 502 729 481 z"},"-":{"x_min":0,"x_max":394,"ha":394,"o":"m 53 288 q 53 308 67 321 q 81 334 101 334 l 293 334 q 313 334 326 320 q 340 307 340 286 q 340 266 326 253 q 313 240 293 240 l 101 240 q 81 240 67 254 q 53 267 53 288 z"},"E":{"x_min":0,"x_max":570,"ha":570,"o":"m 527 45 q 527 25 514 12 q 500 0 479 0 l 131 0 q 111 0 97 14 q 83 28 83 48 l 83 652 q 83 672 97 686 q 111 700 131 700 l 479 700 q 500 700 514 687 q 527 674 527 653 q 527 633 514 620 q 500 608 479 608 l 182 608 l 182 404 l 434 404 q 455 404 468 391 q 482 378 482 358 q 482 337 468 325 q 455 313 434 313 l 182 313 l 182 92 l 479 92 q 500 92 514 78 q 527 64 527 45 z"},"s":{"x_min":0,"x_max":477,"ha":477,"o":"m 32 109 q 32 129 53 143 q 63 150 76 150 q 94 150 109 135 q 139 101 174 84 q 208 67 256 67 q 294 68 323 84 q 352 101 352 138 q 352 172 322 190 q 293 208 236 223 q 180 238 143 254 q 106 271 80 302 q 55 334 55 385 q 55 430 80 464 q 106 498 148 517 q 191 536 241 536 q 289 536 336 518 q 384 500 414 463 q 426 449 426 434 q 426 418 410 403 q 400 394 385 394 q 367 394 356 406 q 335 430 304 443 q 274 456 237 456 q 199 456 172 440 q 146 425 146 388 q 147 353 176 336 q 206 319 267 303 q 320 289 355 273 q 390 257 414 226 q 438 194 438 143 q 438 96 411 62 q 384 27 340 8 q 297 -10 248 -10 q 185 -10 132 12 q 78 34 41 82 q 32 96 32 109 z"},">":{"x_min":0,"x_max":527,"ha":527,"o":"m 499 246 q 499 218 476 205 l 137 14 q 114 0 100 0 q 84 0 70 15 q 56 30 56 47 q 56 67 79 80 l 371 245 l 78 416 q 58 427 58 450 q 58 468 71 483 q 84 498 99 498 q 109 498 122 491 q 136 484 139 482 l 474 288 q 499 272 499 246 z"},"l":{"x_min":0,"x_max":253,"ha":253,"o":"m 126 0 q 106 0 92 14 q 79 28 79 48 l 79 692 q 79 712 93 726 q 107 740 127 740 q 147 740 160 726 q 174 712 174 692 l 174 48 q 174 28 160 14 q 146 0 126 0 z"},"8":{"x_min":0,"x_max":578,"ha":578,"o":"m 515 200 q 515 145 485 98 q 455 52 403 24 q 351 -3 289 -3 q 227 -3 175 24 q 123 52 93 98 q 63 145 63 200 q 63 254 92 294 q 120 335 165 361 q 128 382 104 418 q 80 455 80 504 q 80 558 108 603 q 136 648 184 674 q 231 700 289 700 q 346 700 394 674 q 442 648 470 603 q 497 558 497 504 q 497 453 472 418 q 447 382 410 362 q 458 335 486 292 q 515 249 515 200 z m 175 502 q 175 455 208 424 q 241 392 289 392 q 336 392 369 424 q 402 455 402 502 q 402 550 370 581 q 338 612 289 612 q 239 612 207 581 q 175 550 175 502 z m 420 201 q 420 251 382 285 q 343 319 289 319 q 235 319 197 285 q 159 251 159 201 q 159 151 196 118 q 233 85 289 85 q 345 85 382 118 q 420 151 420 201 z"},"\\":{"x_min":0,"x_max":549,"ha":549,"o":"m 447 -107 l 27 742 q 22 751 22 762 q 22 779 35 790 q 48 802 63 802 q 89 802 102 775 l 523 -74 q 528 -86 528 -94 q 528 -111 514 -122 q 500 -134 485 -134 q 473 -134 462 -126 q 452 -119 447 -107 z"},"e":{"x_min":0,"x_max":570,"ha":570,"o":"m 483 239 l 131 239 q 138 166 186 122 q 235 78 305 78 q 353 78 383 92 q 413 106 436 128 q 451 137 465 137 q 482 137 494 125 q 505 113 505 97 q 505 76 485 59 q 456 30 408 10 q 360 -10 310 -10 q 229 -10 168 24 q 106 58 72 119 q 39 180 39 257 q 39 341 74 404 q 108 468 164 502 q 221 536 286 536 q 350 536 406 503 q 462 470 496 412 q 530 354 531 282 q 530 264 516 252 q 502 239 483 239 z m 135 319 l 430 319 l 430 327 q 425 380 382 414 q 340 448 286 448 q 230 448 189 416 q 148 385 135 319 z"},"b":{"x_min":0,"x_max":614,"ha":614,"o":"m 575 264 q 575 186 544 123 q 512 60 457 25 q 402 -10 336 -10 q 284 -10 239 13 q 194 36 166 70 l 166 41 q 166 21 152 7 q 139 -7 118 -7 q 98 -7 84 6 q 71 20 71 41 l 71 692 q 71 713 84 726 q 97 740 118 740 q 139 740 152 726 q 166 712 166 692 l 166 448 q 190 484 236 510 q 282 536 334 536 q 402 536 457 501 q 512 466 544 404 q 575 342 575 264 z m 484 264 q 484 316 464 358 q 443 400 406 424 q 369 448 323 448 q 276 448 239 424 q 202 400 182 358 q 161 317 161 264 q 161 211 182 169 q 202 127 239 102 q 276 78 323 78 q 369 78 406 102 q 443 127 464 170 q 484 212 484 264 z"},"%":{"x_min":0,"x_max":799,"ha":799,"o":"m 36 518 q 36 571 55 614 q 74 658 108 684 q 143 709 189 709 q 258 709 300 654 q 341 600 341 519 q 341 467 322 424 q 302 380 268 354 q 233 329 189 329 q 143 329 108 354 q 74 379 55 422 q 36 466 36 518 z m 149 37 q 149 48 156 62 l 567 683 q 581 702 600 702 q 615 702 628 691 q 642 680 642 663 q 642 651 634 638 l 224 17 q 210 -2 191 -2 q 176 -2 162 9 q 149 20 149 37 z m 260 518 q 260 570 242 602 q 223 634 189 634 q 155 634 136 602 q 118 570 118 519 q 118 467 136 435 q 155 403 189 403 q 223 403 242 435 q 260 467 260 518 z m 458 179 q 458 232 477 276 q 496 319 530 344 q 565 370 611 370 q 657 370 692 344 q 726 319 744 276 q 763 233 763 180 q 763 128 744 85 q 724 42 690 16 q 655 -9 611 -9 q 567 -9 532 16 q 497 41 478 84 q 458 127 458 179 z m 681 179 q 681 231 662 264 q 644 296 611 296 q 577 296 558 264 q 540 231 540 180 q 540 128 558 96 q 577 64 611 64 q 645 64 663 96 q 681 128 681 179 z"},"m":{"x_min":0,"x_max":918,"ha":918,"o":"m 847 315 l 847 48 q 847 27 834 14 q 821 0 800 0 q 779 0 766 14 q 752 28 752 48 l 752 314 q 752 445 642 445 q 603 445 572 428 q 540 410 522 380 q 505 350 505 314 l 505 48 q 505 28 492 14 q 478 0 457 0 q 436 0 423 14 q 410 27 410 48 l 410 315 q 410 374 385 410 q 360 445 302 445 q 243 445 204 408 q 166 370 166 315 l 166 48 q 166 28 152 14 q 139 0 118 0 q 97 0 84 14 q 71 27 71 48 l 71 476 q 71 496 84 510 q 98 524 118 524 q 139 524 152 510 q 166 496 166 476 l 166 441 q 192 480 236 506 q 279 533 330 533 q 454 533 491 423 q 513 465 564 499 q 615 533 672 533 q 847 533 847 315 z"},"#":{"x_min":0,"x_max":677,"ha":677,"o":"m 532 449 l 499 255 l 564 255 q 583 255 596 242 q 609 229 609 210 q 609 192 596 180 q 583 169 564 169 l 484 169 l 461 36 q 459 20 448 10 q 436 0 420 0 q 401 0 388 12 q 376 25 376 45 q 376 52 377 56 l 396 169 l 219 169 l 196 36 q 193 19 182 10 q 170 0 154 0 q 134 0 122 13 q 110 26 110 46 q 110 53 111 56 l 131 169 l 76 169 q 57 169 44 182 q 31 195 31 214 q 31 232 44 244 q 56 255 76 255 l 145 255 l 179 449 l 114 449 q 95 449 82 462 q 69 475 69 494 q 69 512 82 524 q 94 535 114 535 l 194 535 l 216 664 q 218 680 230 690 q 241 700 257 700 q 276 700 288 688 q 301 675 301 655 q 301 648 300 644 l 281 535 l 459 535 l 481 664 q 483 680 494 690 q 506 700 523 700 q 542 700 554 687 q 567 674 567 654 q 567 647 566 644 l 547 535 l 601 535 q 621 535 634 522 q 646 510 646 490 q 646 472 634 460 q 621 449 601 449 z m 411 255 l 444 449 l 267 449 l 233 255 z"},",":{"x_min":0,"x_max":241,"ha":241,"o":"m 84 -130 q 67 -130 56 -122 q 45 -113 45 -97 q 45 -83 52 -78 q 59 -72 68 -69 q 78 -66 83 -64 q 97 -57 104 -46 q 112 -34 112 -20 q 112 -9 103 -1 q 94 7 80 7 q 64 7 53 -1 q 43 4 38 12 q 33 19 33 32 q 34 56 59 74 q 84 93 112 93 q 149 93 170 70 q 191 47 191 6 q 191 -19 175 -52 q 159 -84 134 -107 q 110 -130 84 -130 z"},"n":{"x_min":0,"x_max":589,"ha":589,"o":"m 518 320 l 518 48 q 518 28 504 14 q 491 0 470 0 q 450 0 436 14 q 423 28 423 48 l 423 319 q 423 378 396 413 q 369 448 308 448 q 268 448 236 430 q 203 413 184 384 q 166 354 166 319 l 166 48 q 166 28 152 14 q 139 0 118 0 q 97 0 84 14 q 71 27 71 48 l 71 476 q 71 496 84 510 q 98 524 118 524 q 139 524 152 510 q 166 496 166 476 l 166 441 q 192 481 238 508 q 285 536 338 536 q 518 536 518 320 z"},"h":{"x_min":0,"x_max":579,"ha":579,"o":"m 508 315 l 508 48 q 508 28 494 14 q 481 0 460 0 q 440 0 426 14 q 413 28 413 48 l 413 315 q 413 445 303 445 q 244 445 205 408 q 166 370 166 315 l 166 48 q 166 28 152 14 q 139 0 118 0 q 97 0 84 14 q 71 27 71 48 l 71 692 q 71 712 84 726 q 98 740 118 740 q 139 740 152 726 q 166 712 166 692 l 166 439 q 191 478 236 506 q 281 533 332 533 q 508 533 508 315 z"},"z":{"x_min":0,"x_max":482,"ha":482,"o":"m 448 44 q 448 25 435 12 q 422 0 403 0 l 80 0 q 61 0 48 14 q 36 28 36 43 q 37 56 40 64 q 43 73 51 84 l 313 434 l 96 434 q 77 434 64 447 q 51 460 51 479 q 51 498 64 510 q 76 522 96 522 l 403 522 q 422 522 434 508 q 447 494 446 474 q 445 464 442 456 q 440 449 432 440 l 168 88 l 403 88 q 422 88 435 76 q 448 63 448 44 z"},"B":{"x_min":0,"x_max":653,"ha":653,"o":"m 610 206 q 610 95 546 48 q 481 0 388 0 l 131 0 q 111 0 97 14 q 83 28 83 48 l 83 652 q 83 672 97 686 q 111 700 131 700 l 388 700 q 479 700 526 655 q 574 610 574 525 q 574 477 551 440 q 528 402 484 382 q 539 363 574 320 q 610 276 610 206 z m 374 606 l 185 606 l 185 411 l 376 411 q 417 412 444 438 q 471 463 471 510 q 471 557 446 582 q 420 606 374 606 z m 508 206 q 508 317 382 317 l 185 317 l 185 92 l 387 92 q 442 92 475 120 q 508 149 508 206 z"},"K":{"x_min":0,"x_max":663,"ha":663,"o":"m 626 48 q 626 26 610 12 q 593 -2 572 -2 q 552 -2 537 16 l 294 329 l 182 223 l 182 49 q 182 28 168 14 q 154 0 132 0 q 110 0 96 14 q 83 28 83 49 l 83 652 q 83 672 97 686 q 111 700 133 700 q 155 700 168 686 q 182 673 182 652 l 182 341 l 537 685 q 556 702 575 702 q 593 702 606 687 q 619 672 619 655 q 619 640 605 624 l 368 400 l 615 81 q 626 67 626 48 z"},"R":{"x_min":0,"x_max":680,"ha":680,"o":"m 638 41 q 638 20 624 10 q 611 0 592 0 q 573 0 560 8 q 530 25 511 63 q 492 101 492 175 q 492 225 462 249 q 432 273 384 273 l 182 273 l 182 48 q 182 27 170 14 q 158 0 139 0 q 116 0 100 14 q 83 28 83 48 l 83 652 q 83 672 97 686 q 111 700 131 700 l 412 700 q 466 700 511 674 q 556 647 583 600 q 610 554 610 496 q 610 440 580 392 q 550 343 503 319 q 540 300 562 266 q 583 232 585 187 q 589 130 594 110 q 599 89 616 80 q 626 73 632 62 q 638 52 638 41 z m 508 493 q 508 541 478 574 q 449 608 407 608 l 182 608 l 182 356 l 410 356 q 435 358 458 376 q 480 394 494 424 q 508 455 508 493 z"},"T":{"x_min":0,"x_max":617,"ha":617,"o":"m 585 654 q 585 633 572 621 q 558 609 537 609 l 359 609 l 359 48 q 359 28 344 14 q 330 0 308 0 q 286 0 272 14 q 257 28 257 48 l 257 609 l 80 609 q 59 609 46 622 q 32 634 32 655 q 32 675 46 688 q 59 700 80 700 l 537 700 q 558 700 572 688 q 585 675 585 654 z"},"P":{"x_min":0,"x_max":600,"ha":600,"o":"m 559 486 q 559 427 532 377 q 506 327 461 298 q 416 269 363 269 l 175 269 l 175 48 q 175 28 162 14 q 149 0 129 0 q 108 0 96 14 q 83 27 83 48 l 83 652 q 83 672 97 686 q 111 700 131 700 l 363 700 q 416 700 461 672 q 506 643 532 594 q 559 545 559 486 z m 463 486 q 463 537 434 572 q 404 608 363 608 l 175 608 l 175 360 l 363 360 q 390 360 413 378 q 436 395 450 424 q 463 453 463 486 z"},"|":{"x_min":0,"x_max":230,"ha":230,"o":"m 114 -148 q 94 -148 80 -134 q 67 -121 67 -100 l 67 746 q 67 767 81 780 q 95 794 116 794 q 136 794 149 780 q 162 767 162 746 l 162 -100 q 162 -121 148 -134 q 135 -148 114 -148 z"},"t":{"x_min":0,"x_max":380,"ha":380,"o":"m 213 431 l 213 133 q 213 83 258 83 q 265 83 277 86 q 289 90 296 90 q 309 90 318 79 q 327 68 327 51 q 327 30 303 15 q 279 0 249 0 q 216 0 188 7 q 161 14 140 42 q 118 71 118 129 l 118 431 l 60 431 q 41 431 28 444 q 16 456 16 475 q 16 494 28 506 q 41 518 60 518 l 118 518 l 118 602 q 118 622 132 636 q 145 650 166 650 q 186 650 200 636 q 213 622 213 602 l 213 518 l 296 518 q 315 518 328 506 q 340 493 340 474 q 340 455 328 443 q 315 431 296 431 z"},"M":{"x_min":0,"x_max":822,"ha":822,"o":"m 739 653 l 739 48 q 739 28 726 14 q 712 0 690 0 q 668 0 654 14 q 640 27 640 48 l 640 511 l 446 217 q 439 208 428 202 q 418 196 407 197 q 397 196 386 202 q 376 208 369 217 l 174 520 l 174 48 q 174 27 162 14 q 149 0 128 0 q 108 0 96 14 q 83 27 83 48 l 83 653 q 83 672 97 686 q 111 701 132 701 q 144 701 156 695 q 167 689 174 679 l 411 320 l 651 679 q 667 701 691 701 q 711 700 725 686 q 739 673 739 653 z"},"g":{"x_min":0,"x_max":627,"ha":627,"o":"m 557 482 l 557 42 q 557 -39 522 -94 q 488 -148 429 -174 q 370 -200 296 -200 q 256 -200 202 -186 q 149 -172 134 -157 q 103 -141 103 -117 q 103 -111 107 -101 q 118 -76 144 -76 q 157 -76 172 -82 q 252 -113 297 -113 q 377 -113 420 -74 q 462 -36 462 31 l 462 85 q 441 46 392 18 q 342 -10 287 -10 q 218 -10 161 25 q 104 60 72 122 q 39 185 39 263 q 39 341 72 404 q 104 466 160 501 q 217 536 285 536 q 340 536 388 511 q 435 486 462 450 l 462 482 q 462 503 475 517 q 488 531 509 531 q 530 531 544 518 q 557 504 557 482 z m 466 263 q 466 316 444 358 q 423 400 385 424 q 347 448 298 448 q 250 448 212 424 q 174 400 152 358 q 131 315 131 263 q 131 211 152 168 q 174 126 212 102 q 250 78 298 78 q 347 78 385 102 q 423 125 444 168 q 466 210 466 263 z"},"j":{"x_min":0,"x_max":261,"ha":261,"o":""},"i":{"x_min":0,"x_max":227,"ha":227,"o":""},"y":{"x_min":0,"x_max":579,"ha":579,"o":"m 509 481 l 509 49 q 509 -76 440 -138 q 371 -200 258 -200 q 221 -200 185 -193 q 149 -186 126 -174 q 89 -157 89 -128 q 89 -123 91 -115 q 97 -98 108 -89 q 119 -80 133 -80 q 141 -80 148 -83 q 179 -97 203 -105 q 227 -113 259 -113 q 414 -113 414 46 l 414 66 q 387 30 344 10 q 302 -10 247 -10 q 164 -10 118 43 q 71 96 71 182 l 71 481 q 71 502 84 516 q 97 529 118 529 q 139 529 152 515 q 166 501 166 481 l 166 207 q 166 141 195 110 q 224 78 283 78 q 340 78 377 114 q 414 150 414 207 l 414 481 q 414 502 427 516 q 440 529 461 529 q 482 529 496 515 q 509 501 509 481 z"},"@":{"x_min":0,"x_max":967,"ha":967,"o":"m 563 150 q 534 101 491 78 q 448 55 400 55 q 360 55 326 76 q 293 97 272 134 q 252 172 252 220 q 252 283 284 352 q 317 420 372 465 q 428 510 492 510 q 533 510 564 488 q 595 466 608 428 l 615 470 q 617 484 628 494 q 639 505 660 505 q 702 505 702 470 q 702 461 701 456 l 658 184 q 657 179 657 169 q 657 145 670 132 q 682 120 700 120 q 742 120 778 160 q 815 201 836 265 q 858 329 858 396 q 858 470 824 526 q 789 582 725 614 q 661 645 576 645 q 444 645 338 592 q 231 539 170 440 q 108 340 108 206 q 108 126 140 58 q 172 -11 241 -54 q 310 -97 414 -97 q 488 -97 535 -83 q 582 -69 639 -38 q 649 -33 655 -33 q 672 -33 680 -53 q 682 -57 682 -64 q 682 -84 653 -98 q 592 -129 540 -146 q 488 -162 414 -162 q 286 -162 202 -110 q 118 -58 79 26 q 40 109 40 206 q 40 358 111 472 q 182 587 304 648 q 426 710 576 710 q 686 710 765 668 q 844 626 884 555 q 925 484 925 396 q 925 313 893 234 q 861 155 802 105 q 744 55 670 55 q 625 55 594 82 q 562 108 563 150 z m 580 288 q 589 320 589 345 q 589 391 563 414 q 537 436 496 436 q 451 436 416 402 q 381 368 362 318 q 342 268 342 222 q 342 178 364 154 q 386 129 422 129 q 460 129 495 154 q 530 178 553 216 q 576 253 580 288 z"},".":{"x_min":0,"x_max":221,"ha":221,"o":"m 56 52 l 56 71 q 56 95 68 108 q 81 121 105 121 l 115 121 q 140 121 152 108 q 165 95 165 71 l 165 52 q 165 1 115 1 l 105 1 q 81 1 68 14 q 56 27 56 52 z"},"p":{"x_min":0,"x_max":614,"ha":614,"o":"m 575 262 q 575 184 544 122 q 512 61 457 26 q 402 -9 336 -9 q 284 -9 239 14 q 194 37 166 70 l 166 -152 q 166 -172 152 -186 q 139 -200 118 -200 q 98 -200 84 -186 q 71 -173 71 -152 l 71 477 q 71 498 84 512 q 97 526 118 526 q 139 526 152 512 q 166 498 166 477 l 166 448 q 190 483 236 508 q 282 533 334 533 q 402 533 457 498 q 512 464 544 402 q 575 340 575 262 z m 484 262 q 484 314 464 356 q 443 397 406 421 q 369 445 323 445 q 276 445 239 422 q 202 398 182 356 q 161 314 161 262 q 161 210 182 168 q 202 126 239 102 q 276 79 323 79 q 369 79 406 103 q 443 127 464 168 q 484 210 484 262 z"},"X":{"x_min":0,"x_max":634,"ha":634,"o":"m 584 72 q 593 60 593 43 q 593 22 578 9 q 564 -4 546 -4 q 521 -4 507 16 l 313 276 l 123 17 q 108 -4 84 -4 q 66 -4 54 8 q 41 21 41 37 q 41 54 53 70 l 258 349 l 52 626 q 42 639 42 655 q 42 675 56 689 q 71 703 90 703 q 101 703 112 698 q 122 693 129 683 l 321 425 l 511 680 q 528 702 549 702 q 567 702 580 688 q 594 675 594 658 q 594 643 584 629 l 376 351 z"},"*":{"x_min":0,"x_max":341,"ha":341,"o":"m 144 420 l 152 505 q 153 508 151 509 q 149 510 146 508 l 76 459 q 67 453 58 453 q 44 453 35 467 q 31 475 31 483 q 31 499 48 507 l 127 543 q 130 544 130 546 q 130 548 127 549 l 48 585 q 40 589 36 596 q 31 602 31 610 q 31 618 35 625 q 44 639 59 639 q 66 639 76 634 l 146 583 q 149 581 151 582 q 153 583 152 586 l 144 671 q 143 684 150 693 q 158 702 172 702 q 184 702 192 693 q 199 684 198 671 l 190 586 q 189 583 191 582 q 193 581 196 583 l 266 633 q 274 639 283 639 q 299 639 307 625 q 311 618 311 610 q 311 593 293 585 l 215 549 q 212 548 212 546 q 212 544 215 543 l 293 507 q 311 498 311 481 q 311 477 307 467 q 297 452 283 452 q 273 452 266 458 l 196 508 q 193 510 191 509 q 189 508 190 505 l 198 420 q 199 407 191 398 q 183 390 170 390 q 157 390 150 398 q 142 407 144 420 z"},"Y":{"x_min":0,"x_max":581,"ha":581,"o":"m 555 625 l 340 322 l 340 48 q 340 28 326 14 q 313 0 294 0 q 274 0 260 14 q 246 28 246 48 l 246 330 l 32 619 q 18 637 18 655 q 18 675 34 689 q 50 703 69 703 q 92 703 108 681 l 296 421 l 477 680 q 493 703 517 703 q 536 703 550 689 q 564 675 564 655 q 564 640 555 625 z"},"c":{"x_min":0,"x_max":514,"ha":514,"o":"m 483 447 q 483 430 472 416 q 461 403 444 403 q 431 403 424 407 q 416 411 403 420 q 397 426 384 434 q 372 440 350 444 q 328 448 310 448 q 258 448 218 424 q 178 400 156 358 q 134 315 134 263 q 134 210 156 168 q 177 126 216 102 q 255 78 305 78 q 357 78 389 94 q 396 98 408 107 q 418 115 426 119 q 433 123 444 123 q 464 123 476 110 q 487 98 487 78 q 487 57 460 36 q 434 16 390 3 q 345 -10 294 -10 q 218 -10 160 26 q 102 61 70 124 q 39 186 39 263 q 39 340 72 402 q 105 465 164 500 q 223 536 299 536 q 378 536 430 511 q 483 486 483 447 z"},"!":{"x_min":0,"x_max":233,"ha":233,"o":"m 87 242 l 65 640 q 63 666 78 683 q 92 700 116 700 q 141 700 155 683 q 169 666 167 640 l 146 242 q 145 226 138 218 q 130 210 117 210 q 89 210 87 242 z m 62 51 l 62 70 q 62 94 74 108 q 87 121 111 121 l 122 121 q 146 121 158 108 q 171 94 171 70 l 171 51 q 171 27 158 14 q 146 0 122 0 l 111 0 q 87 0 74 14 q 62 27 62 51 z"},"/":{"x_min":0,"x_max":549,"ha":549,"o":"m 21 -91 q 21 -83 26 -71 l 445 773 q 459 800 484 800 q 499 800 512 788 q 525 777 525 760 q 525 748 520 738 l 102 -106 q 90 -132 64 -132 q 48 -132 34 -120 q 21 -108 21 -91 z"},"[":{"x_min":0,"x_max":403,"ha":403,"o":"m 376 -152 q 376 -168 365 -179 q 354 -190 337 -190 l 119 -190 q 103 -190 92 -179 q 80 -168 80 -151 l 80 661 q 80 678 92 689 q 103 700 119 700 l 337 700 q 354 700 365 689 q 376 678 376 661 q 376 644 365 634 q 354 623 337 623 l 172 623 l 172 -112 l 337 -112 q 354 -112 365 -124 q 376 -135 376 -152 z"},"6":{"x_min":0,"x_max":543,"ha":543,"o":"m 506 219 q 506 157 476 104 q 446 52 394 21 q 342 -10 279 -10 q 207 -10 154 27 q 102 64 74 124 q 46 184 46 253 q 46 330 76 422 q 106 515 174 594 q 243 674 350 708 q 359 711 368 711 q 389 711 402 700 q 416 689 416 665 q 416 648 405 635 q 394 622 375 617 q 305 592 245 531 q 185 470 159 394 q 218 449 294 449 q 349 449 398 418 q 447 386 476 333 q 506 280 506 219 z m 411 219 q 411 278 374 320 q 338 361 280 361 q 220 361 182 320 q 143 278 143 217 q 143 159 180 118 q 218 78 278 78 q 335 78 373 118 q 411 158 411 219 z"},"r":{"x_min":0,"x_max":413,"ha":413,"o":"m 396 489 q 396 465 384 452 q 371 440 353 440 q 344 440 326 446 q 305 453 293 453 q 262 453 232 432 q 203 410 184 372 q 166 335 166 289 l 166 48 q 166 28 152 14 q 139 0 118 0 q 97 0 84 14 q 71 27 71 48 l 71 476 q 71 496 84 510 q 98 524 118 524 q 139 524 152 510 q 166 496 166 476 l 166 425 q 188 474 232 504 q 276 535 332 536 q 358 536 377 522 q 396 509 396 489 z"},"2":{"x_min":0,"x_max":549,"ha":549,"o":"m 513 43 q 513 24 500 12 q 487 0 468 0 l 113 0 q 93 0 80 12 q 67 25 67 46 q 67 64 81 80 l 304 322 q 397 421 397 497 q 397 551 362 586 q 326 622 271 622 q 234 622 200 601 q 166 580 145 541 q 129 520 107 520 q 90 520 75 533 q 60 546 60 563 q 60 574 68 586 q 75 598 89 614 q 122 658 173 684 q 224 710 276 710 q 343 710 392 683 q 441 656 468 609 q 494 562 494 501 q 494 386 370 253 l 219 88 l 468 88 q 487 88 500 75 q 513 62 513 43 z"},"{":{"x_min":0,"x_max":412,"ha":412,"o":"m 386 -168 q 385 -182 376 -192 q 366 -201 353 -201 q 344 -201 340 -200 q 267 -186 226 -160 q 186 -133 170 -96 q 155 -59 155 -7 l 156 88 q 156 146 130 179 q 105 212 57 213 l 53 213 q 37 213 26 224 q 15 235 15 251 q 15 267 26 278 q 37 288 53 288 l 59 288 q 107 289 132 322 q 156 355 156 412 l 155 507 q 155 588 198 633 q 240 678 339 700 q 344 701 352 701 q 369 701 378 691 q 386 681 386 666 q 386 655 378 646 q 371 637 358 633 q 310 617 286 599 q 261 581 252 557 q 244 533 244 494 l 245 399 q 245 341 220 303 q 194 265 147 250 q 194 234 220 196 q 245 159 245 102 l 244 7 q 244 -33 252 -56 q 261 -80 285 -98 q 309 -116 358 -132 q 371 -137 378 -147 q 386 -157 386 -168 z"},"9":{"x_min":0,"x_max":550,"ha":550,"o":"m 506 449 q 506 372 476 281 q 446 190 378 112 q 310 33 203 -1 q 194 -4 185 -4 q 165 -4 150 8 q 136 19 136 42 q 136 59 147 72 q 158 85 177 90 q 248 115 308 174 q 369 233 394 309 q 336 253 259 253 q 204 253 154 284 q 105 316 76 370 q 46 423 46 484 q 46 545 76 598 q 107 650 159 681 q 211 712 274 712 q 346 712 398 675 q 451 638 478 578 q 506 518 506 449 z m 410 485 q 410 543 372 584 q 334 624 274 624 q 218 624 180 584 q 142 544 142 484 q 142 424 178 383 q 215 342 272 342 q 333 342 372 383 q 410 424 410 485 z"}," ":{"x_min":0,"x_max":277,"ha":277,"o":""},"I":{"x_min":0,"x_max":265,"ha":265,"o":"m 132 0 q 110 0 96 14 q 83 28 83 49 l 83 652 q 83 672 97 686 q 111 700 133 700 q 153 700 168 686 q 182 672 182 652 l 182 49 q 182 28 167 14 q 152 0 132 0 z"},"H":{"x_min":0,"x_max":719,"ha":719,"o":"m 637 652 l 637 49 q 636 28 622 14 q 608 0 586 0 q 566 0 552 14 q 537 28 537 49 l 537 308 l 182 308 l 182 49 q 182 28 167 14 q 152 0 132 0 q 110 0 96 14 q 83 28 83 49 l 83 652 q 83 672 97 686 q 111 700 133 700 q 153 700 168 686 q 182 672 182 652 l 182 400 l 537 400 l 537 652 q 537 672 552 686 q 567 700 587 700 q 609 700 623 686 q 637 673 637 652 z"},"4":{"x_min":0,"x_max":645,"ha":645,"o":"m 581 244 q 581 225 568 213 q 555 201 536 201 l 483 201 l 483 48 q 483 28 469 14 q 455 0 435 0 q 415 0 402 14 q 388 28 388 48 l 388 201 l 114 201 q 96 201 82 215 q 67 229 67 248 q 67 266 78 280 l 397 681 q 404 690 414 695 q 425 700 436 700 q 456 700 470 686 q 483 672 483 652 l 483 288 l 536 288 q 555 288 568 276 q 581 263 581 244 z m 193 288 l 388 288 l 388 538 z"},"~":{"x_min":0,"x_max":508,"ha":508,"o":"m 238 258 q 231 260 210 268 q 188 276 174 280 q 159 284 150 284 q 138 284 130 277 q 123 270 123 256 q 124 253 124 248 q 124 234 115 226 q 106 218 93 218 q 74 218 62 232 q 50 247 50 271 q 50 311 78 334 q 106 358 161 358 q 195 358 275 324 q 282 322 303 314 q 324 306 338 302 q 352 298 360 298 q 372 298 379 306 q 386 313 385 326 q 384 329 384 336 q 384 349 393 357 q 402 365 415 365 q 433 365 446 350 q 458 336 458 313 q 458 272 432 248 q 407 225 354 225 q 335 225 308 234 q 280 242 238 258 z"},"D":{"x_min":0,"x_max":717,"ha":717,"o":"m 673 350 q 673 252 639 172 q 605 93 538 46 q 471 0 377 0 l 131 0 q 111 0 97 14 q 83 28 83 48 l 83 652 q 83 672 97 686 q 111 700 131 700 l 377 700 q 471 700 538 653 q 605 606 639 526 q 673 447 673 350 z m 571 350 q 571 462 520 535 q 468 608 367 608 l 182 608 l 182 92 l 367 92 q 469 92 520 164 q 571 237 571 350 z"},"^":{"x_min":0,"x_max":576,"ha":576,"o":"m 524 400 q 524 380 509 366 q 494 351 474 351 q 446 351 434 371 l 289 620 l 141 371 q 129 351 102 351 q 82 351 68 366 q 53 380 53 400 q 53 414 68 436 l 224 702 q 233 717 248 722 q 263 728 287 728 q 313 728 328 722 q 344 717 353 702 l 509 435 q 515 427 520 418 q 524 409 524 400 z"},"0":{"x_min":0,"x_max":606,"ha":606,"o":"m 46 350 q 46 456 76 537 q 105 618 163 664 q 221 710 303 710 q 385 710 443 664 q 501 618 530 537 q 560 456 560 350 q 560 244 530 163 q 501 82 443 36 q 385 -10 303 -10 q 221 -10 163 36 q 105 82 76 163 q 46 244 46 350 z m 457 350 q 457 476 416 545 q 376 614 303 614 q 230 614 190 545 q 149 476 149 350 q 149 224 190 155 q 230 86 303 86 q 376 86 416 155 q 457 224 457 350 z"},"F":{"x_min":0,"x_max":564,"ha":564,"o":"m 181 608 l 181 401 l 427 401 q 448 401 462 388 q 475 375 475 354 q 475 336 462 323 q 448 310 427 310 l 181 310 l 181 48 q 181 28 166 14 q 152 0 132 0 q 111 0 97 14 q 83 28 83 48 l 83 652 q 83 672 97 686 q 111 700 131 700 l 472 700 q 493 700 506 687 q 520 674 520 653 q 520 635 506 622 q 492 608 472 608 z"},"`":{"x_min":0,"x_max":245,"ha":245,"o":"m 143 594 l 52 656 q 25 671 25 697 q 25 715 38 726 q 52 738 68 738 q 90 738 110 718 l 188 637 q 199 626 199 614 q 199 601 190 594 q 181 586 167 586 q 159 586 143 594 z"},"k":{"x_min":0,"x_max":555,"ha":555,"o":"m 514 48 q 514 28 498 14 q 483 1 466 1 q 444 1 431 17 l 234 226 l 174 172 l 174 48 q 174 28 160 14 q 147 0 127 0 q 106 0 92 14 q 79 28 79 48 l 79 692 q 79 712 92 726 q 106 740 127 740 q 147 740 160 726 q 174 712 174 692 l 174 286 l 419 511 q 436 526 454 526 q 471 526 485 512 q 499 497 499 481 q 499 461 480 445 l 307 291 l 499 83 q 514 67 514 48 z"},"u":{"x_min":0,"x_max":580,"ha":580,"o":"m 509 476 l 509 210 q 509 106 452 48 q 394 -9 289 -9 q 185 -9 128 48 q 71 106 71 210 l 71 476 q 71 496 84 510 q 98 524 118 524 q 139 524 152 510 q 166 496 166 476 l 166 210 q 166 79 289 79 q 350 79 382 112 q 414 145 414 210 l 414 476 q 414 496 428 510 q 441 524 461 524 q 482 524 496 510 q 509 496 509 476 z"},"]":{"x_min":0,"x_max":403,"ha":403,"o":"m 323 661 l 323 -151 q 323 -168 312 -179 q 300 -190 283 -190 l 66 -190 q 49 -190 38 -179 q 26 -168 26 -151 q 26 -135 38 -124 q 49 -113 66 -113 l 231 -113 l 231 622 l 66 622 q 49 622 38 634 q 26 645 26 662 q 26 678 38 689 q 49 700 66 700 l 283 700 q 300 700 312 689 q 323 678 323 661 z"},"U":{"x_min":0,"x_max":708,"ha":708,"o":"m 625 653 l 625 269 q 625 190 590 127 q 555 64 494 28 q 432 -7 355 -7 q 277 -7 215 28 q 153 64 118 127 q 83 190 83 269 l 83 653 q 83 674 97 688 q 111 701 133 701 q 152 701 166 687 q 181 673 181 653 l 181 269 q 181 217 205 176 q 229 134 269 111 q 309 88 355 88 q 403 88 444 111 q 485 134 510 176 q 534 217 534 269 l 534 653 q 534 674 546 688 q 558 701 579 701 q 600 701 612 688 q 625 674 625 653 z"},"o":{"x_min":0,"x_max":606,"ha":606,"o":"m 303 -10 q 230 -10 170 25 q 109 60 74 122 q 39 184 39 262 q 39 340 74 403 q 109 466 170 501 q 230 536 303 536 q 376 536 436 501 q 497 466 532 403 q 567 340 567 262 q 567 184 532 122 q 497 60 436 25 q 376 -10 303 -10 z m 303 448 q 256 448 218 424 q 179 401 156 358 q 134 316 134 262 q 134 209 156 167 q 179 125 218 102 q 256 78 303 78 q 350 78 388 102 q 427 125 450 167 q 472 209 472 262 q 472 316 450 358 q 427 401 388 424 q 350 448 303 448 z"},"N":{"x_min":0,"x_max":732,"ha":732,"o":"m 649 656 l 649 49 q 649 28 636 14 q 622 0 601 0 q 590 0 580 4 q 569 7 563 14 l 170 526 l 170 44 q 170 25 158 12 q 145 0 126 0 q 107 0 95 12 q 83 25 83 44 l 83 652 q 83 673 96 686 q 110 700 130 700 q 142 700 153 696 q 164 691 170 683 l 562 170 l 562 656 q 562 675 574 688 q 587 700 606 700 q 625 700 637 688 q 649 675 649 656 z"},"+":{"x_min":0,"x_max":571,"ha":571,"o":"m 542 278 q 542 259 530 247 q 517 235 497 235 l 343 235 l 343 82 q 343 60 329 46 q 315 31 292 31 q 270 31 256 46 q 241 60 241 82 l 241 235 l 88 235 q 69 235 56 248 q 43 261 43 280 q 43 299 56 311 q 68 323 88 323 l 241 323 l 241 486 q 241 508 256 522 q 270 536 292 536 q 315 536 329 522 q 343 508 343 486 l 343 323 l 497 323 q 517 323 530 310 q 542 298 542 278 z"},"G":{"x_min":0,"x_max":695,"ha":695,"o":"m 644 320 l 644 95 q 644 68 620 53 q 574 23 519 6 q 464 -10 406 -10 q 306 -10 222 38 q 139 86 91 168 q 43 251 43 350 q 43 449 91 532 q 139 614 222 662 q 306 710 406 710 q 456 710 502 699 q 549 688 586 666 q 598 659 604 649 q 610 639 610 627 q 610 607 596 592 q 583 578 564 578 q 549 578 538 585 q 473 615 406 615 q 334 615 274 580 q 215 545 180 484 q 146 423 146 350 q 146 277 180 216 q 215 156 274 120 q 334 85 406 85 q 440 85 478 93 q 515 101 542 114 l 542 273 l 421 273 q 401 273 387 286 q 373 300 373 320 q 373 341 387 354 q 401 368 421 368 l 597 368 q 617 368 630 354 q 644 340 644 320 z"},"q":{"x_min":0,"x_max":614,"ha":614,"o":"m 544 477 l 544 -152 q 544 -172 530 -186 q 517 -200 496 -200 q 475 -200 462 -186 q 449 -173 449 -152 l 449 76 q 424 40 378 15 q 333 -10 281 -10 q 213 -10 158 25 q 103 60 71 122 q 39 185 39 263 q 39 341 70 404 q 102 466 157 501 q 212 536 278 536 q 331 536 376 514 q 421 492 449 457 l 449 477 q 449 498 462 512 q 475 526 496 526 q 517 526 530 512 q 544 499 544 477 z m 453 263 q 453 315 432 358 q 412 400 376 424 q 339 448 292 448 q 245 448 208 424 q 172 400 152 358 q 131 315 131 263 q 131 210 152 168 q 172 126 208 102 q 245 78 292 78 q 339 78 376 102 q 412 126 432 168 q 453 210 453 263 z"},"d":{"x_min":0,"x_max":614,"ha":614,"o":"m 544 692 l 544 48 q 544 28 530 14 q 517 0 496 0 q 475 0 462 14 q 449 27 449 48 l 449 76 q 424 40 378 15 q 333 -10 281 -10 q 213 -10 158 25 q 103 60 71 122 q 39 185 39 263 q 39 341 70 404 q 102 466 157 501 q 212 536 278 536 q 331 536 376 514 q 421 492 449 457 l 449 692 q 449 713 462 726 q 475 740 496 740 q 517 740 530 726 q 544 713 544 692 z m 453 263 q 453 315 432 358 q 412 400 376 424 q 339 448 292 448 q 245 448 208 424 q 172 400 152 358 q 131 315 131 263 q 131 210 152 168 q 172 126 208 102 q 245 78 292 78 q 339 78 376 102 q 412 126 432 168 q 453 210 453 263 z"},"1":{"x_min":0,"x_max":351,"ha":351,"o":"m 268 652 l 268 48 q 268 28 253 14 q 238 0 216 0 q 194 0 180 14 q 166 28 166 48 l 166 568 l 78 515 q 67 508 53 508 q 33 508 19 524 q 5 539 5 557 q 5 569 12 580 q 19 591 30 598 l 188 693 q 202 700 223 700 q 243 699 256 686 q 268 672 268 652 z"},"5":{"x_min":0,"x_max":567,"ha":567,"o":"m 497 239 q 497 170 462 114 q 426 58 364 26 q 303 -7 230 -7 q 189 -7 148 6 q 107 19 79 42 q 69 50 63 63 q 57 76 57 89 q 57 104 70 116 q 82 129 102 129 q 115 129 137 114 q 182 81 229 81 q 277 81 316 102 q 356 123 379 159 q 402 195 402 238 q 402 302 360 341 q 318 380 254 380 q 227 380 206 373 q 186 366 157 352 q 145 346 134 342 q 122 337 114 337 q 85 337 71 354 q 57 371 57 393 l 58 403 l 94 662 q 97 678 110 689 q 124 700 143 700 l 437 700 q 456 700 468 687 q 481 674 481 655 q 481 636 468 624 q 456 611 437 611 l 176 611 l 150 440 q 172 452 204 460 q 235 468 266 468 q 331 468 384 438 q 437 409 467 356 q 497 304 497 239 z"}}}
